<svg width="29" height="25" viewBox="0 0 29 25" fill="none" xmlns="http://www.w3.org/2000/svg">
<path d="M26.0467 6.72539C27.1677 5.8847 28.1765 4.87587 28.9611 3.6989C27.9523 4.14727 26.7753 4.48355 25.5984 4.59564C26.8314 3.86704 27.7281 2.74612 28.1765 1.34496C27.0556 2.01751 25.7665 2.52193 24.4774 2.80216C23.3565 1.62519 21.8433 0.952637 20.1619 0.952637C16.9112 0.952637 14.277 3.58681 14.277 6.83749C14.277 7.28586 14.3331 7.73423 14.4452 8.1826C9.56915 7.90236 5.19755 5.54842 2.28315 2.01751C1.77873 2.85821 1.4985 3.86704 1.4985 4.98796C1.4985 7.00563 2.50733 8.7991 4.13267 9.86398C3.17989 9.80793 2.2271 9.58375 1.44246 9.13538V9.19143C1.44246 12.0498 3.46012 14.4037 6.15034 14.9642C5.70197 15.0763 5.14151 15.1884 4.63709 15.1884C4.24477 15.1884 3.90849 15.1323 3.51617 15.0763C4.24477 17.4302 6.43057 19.1116 9.00869 19.1677C6.99103 20.7369 4.46895 21.6897 1.72269 21.6897C1.21827 21.6897 0.769903 21.6337 0.321533 21.5776C2.89966 23.259 5.9822 24.2118 9.34497 24.2118C20.1619 24.2118 26.0467 15.3005 26.0467 7.51004C26.0467 7.22981 26.0467 7.00563 26.0467 6.72539Z" fill="#333333"/>
</svg>
